<svg id="Layer_1" data-name="Layer 1" xmlns="http://www.w3.org/2000/svg" xmlns:xlink="http://www.w3.org/1999/xlink" viewBox="0 0 456.25 768"><defs><style>.cls-1{fill:url(#linear-gradient);}.cls-2{fill:url(#linear-gradient-2);}.cls-3{fill:url(#linear-gradient-3);}.cls-4{fill:none;}</style><linearGradient id="linear-gradient" y1="384" x2="456.25" y2="384" gradientUnits="userSpaceOnUse"><stop offset="0" stop-color="#46c4ff"/><stop offset="0.84" stop-color="#58e0a9"/></linearGradient><linearGradient id="linear-gradient-2" x1="311.61" y1="680.41" x2="449.94" y2="424.43" gradientUnits="userSpaceOnUse"><stop offset="0.16" stop-color="#1575fb"/><stop offset="1" stop-color="#44c6fe"/></linearGradient><linearGradient id="linear-gradient-3" x1="176.53" y1="42.77" x2="68.84" y2="198.59" gradientUnits="userSpaceOnUse"><stop offset="0" stop-color="#1575fb"/><stop offset="0.19" stop-color="#218afc"/><stop offset="0.53" stop-color="#34abfd"/><stop offset="0.81" stop-color="#40bffe"/><stop offset="1" stop-color="#44c6fe"/></linearGradient></defs><rect class="cls-1" width="456.25" height="768" rx="56.44"/><path class="cls-2" d="M456.25,217.61V711.56A56.43,56.43,0,0,1,399.81,768H280.41a453.63,453.63,0,0,1-32.12-168.25C248.29,439.54,331.1,298.67,456.25,217.61Z"/><path class="cls-3" d="M309.23,0C295.64,186,170.27,340.91,0,397.89V56.44A56.44,56.44,0,0,1,56.44,0Z"/><path class="cls-4" d="M456.25,56.44V711.56A56.43,56.43,0,0,1,399.81,768H56.44A56.44,56.44,0,0,1,0,711.56V56.44A56.44,56.44,0,0,1,56.44,0H399.81A56.43,56.43,0,0,1,456.25,56.44Z"/></svg>