<svg id="Layer_1" data-name="Layer 1" xmlns="http://www.w3.org/2000/svg" xmlns:xlink="http://www.w3.org/1999/xlink" viewBox="0 0 1366 494.06"><defs><style>.cls-1{fill:url(#linear-gradient);}.cls-2{fill:url(#linear-gradient-2);}.cls-3{fill:none;}</style><linearGradient id="linear-gradient" y1="247.03" x2="1366" y2="247.03" gradientUnits="userSpaceOnUse"><stop offset="0" stop-color="#46c4ff"/><stop offset="0.84" stop-color="#58e0a9"/></linearGradient><linearGradient id="linear-gradient-2" x1="851.01" y1="171.73" x2="1366" y2="171.73" gradientUnits="userSpaceOnUse"><stop offset="0.16" stop-color="#1575fb"/><stop offset="1" stop-color="#44c6fe"/></linearGradient></defs><rect class="cls-1" width="1366" height="494.06" rx="168.98"/><path class="cls-2" d="M1366,169v156.1c0,1.3,0,2.59,0,3.88a412.17,412.17,0,0,1-108.67,14.49C1053.1,343.45,883.62,194.91,851,0h346A169,169,0,0,1,1366,169Z"/><path class="cls-3" d="M1366,169v156.1c0,1.3,0,2.59,0,3.88A169,169,0,0,1,1197,494.06H169a169,169,0,0,1-169-169V169A169,169,0,0,1,169,0H1197A169,169,0,0,1,1366,169Z"/></svg>