<svg id="Layer_1" data-name="Layer 1" xmlns="http://www.w3.org/2000/svg" xmlns:xlink="http://www.w3.org/1999/xlink" viewBox="0 0 804.49 768"><defs><style>.cls-1{fill:url(#linear-gradient);}.cls-2{fill:url(#linear-gradient-2);}.cls-3{fill:none;}</style><linearGradient id="linear-gradient" x1="-12.85" y1="830.5" x2="776.82" y2="-18.93" gradientUnits="userSpaceOnUse"><stop offset="0" stop-color="#46c4ff"/><stop offset="0.84" stop-color="#58e0a9"/></linearGradient><linearGradient id="linear-gradient-2" y1="200.23" x2="653.1" y2="200.23" gradientUnits="userSpaceOnUse"><stop offset="0.16" stop-color="#1575fb"/><stop offset="1" stop-color="#44c6fe"/></linearGradient></defs><rect class="cls-1" width="804.49" height="768" rx="99.52"/><path class="cls-2" d="M653.1,0C604.64,228.78,401.52,400.45,158.3,400.45A505.2,505.2,0,0,1,0,375.18V99.52A99.52,99.52,0,0,1,99.52,0Z"/><path class="cls-3" d="M804.49,99.52v569A99.53,99.53,0,0,1,705,768H99.52A99.52,99.52,0,0,1,0,668.48v-569A99.52,99.52,0,0,1,99.52,0H705A99.53,99.53,0,0,1,804.49,99.52Z"/></svg>